<svg width="175" height="17" fill="none" xmlns="http://www.w3.org/2000/svg"><path d="M8.208 17c3.524 0 5.548-1.565 7.049-3.69l-3.32-2.428c-.955 1.19-1.933 1.985-3.592 1.985-2.229 0-3.798-1.915-3.798-4.367 0-2.429 1.57-4.367 3.798-4.367 1.523 0 2.592.724 3.501 1.892l3.229-2.569C13.665 1.448 11.64 0 8.39 0 3.57 0 0 3.736 0 8.5 0 13.427 3.66 17 8.208 17ZM35.229 16.673h12.119v-3.97H39.64V.327h-4.411v16.346ZM56.333 17c4.91 0 8.594-3.806 8.594-8.5 0-4.74-3.638-8.5-8.549-8.5s-8.594 3.806-8.594 8.5c0 4.74 3.638 8.5 8.549 8.5Zm.045-4.086c-2.41 0-4.07-2.056-4.07-4.414 0-2.405 1.615-4.413 4.025-4.413 2.433 0 4.092 2.054 4.092 4.413 0 2.405-1.614 4.414-4.047 4.414ZM67.225 16.673h4.411v-4.95h1.933l3.206 4.95h5.093l-3.797-5.698c1.978-.864 3.274-2.522 3.274-5.02 0-1.658-.478-2.92-1.41-3.877C78.866.981 77.184.327 74.751.327h-7.526v16.346Zm4.411-8.5V4.25h2.888c1.478 0 2.387.654 2.387 1.938 0 1.238-.864 1.985-2.365 1.985h-2.91ZM83.567 16.673h4.411v-4.67h2.183c3.956 0 6.844-2.032 6.844-5.885 0-3.666-2.592-5.791-6.617-5.791h-6.82v16.346Zm4.411-8.22v-4.32h2.07c1.591 0 2.546.747 2.546 2.149 0 1.33-.955 2.171-2.524 2.171h-2.092ZM98.866 16.673h12.119v-3.97h-7.708V.327h-4.41v16.346ZM119.595 16.977c4.525 0 7.458-2.312 7.458-7.59V.327h-4.479v9.2c0 2.289-1.16 3.363-2.933 3.363-1.774 0-2.933-1.12-2.933-3.48V.328h-4.48v9.177c0 5.114 2.842 7.473 7.367 7.473ZM135.916 16.953c3.865 0 6.435-1.985 6.435-5.324 0-3.106-2.274-4.32-5.935-5.137-2.205-.514-2.751-.84-2.751-1.588 0-.63.523-1.098 1.592-1.098 1.409 0 3.001.56 4.456 1.612l2.206-3.2C140.191.794 138.076.047 135.37.047c-3.819 0-6.161 2.195-6.161 5.23 0 3.41 2.614 4.39 6.002 5.184 2.16.514 2.683.888 2.683 1.565 0 .747-.636 1.168-1.819 1.168-1.841 0-3.592-.678-5.161-1.962l-2.456 3.013c1.956 1.798 4.639 2.708 7.458 2.708ZM24.99 17c4.91 0 8.594-3.806 8.594-8.5 0-4.74-3.638-8.5-8.55-8.5-4.91 0-8.594 3.806-8.594 8.5 0 4.74 3.638 8.5 8.55 8.5Zm.045-4.086c-2.41 0-4.07-2.056-4.07-4.414 0-2.405 1.614-4.413 4.024-4.413 2.433 0 4.093 2.054 4.093 4.413 0 2.405-1.614 4.414-4.047 4.414Z" fill="#fff"/><path fill="#98B61D" d="M146.269 0H175v17h-28.731z"/><path d="M146.269 12.9h2.269v-2.514h1.122c2.035 0 3.521-1.094 3.521-3.169 0-1.974-1.334-3.118-3.404-3.118h-3.508v8.802Zm2.269-4.425V6.149h1.064c.819 0 1.31.402 1.31 1.156 0 .717-.491 1.17-1.298 1.17h-1.076ZM154.138 12.9h2.269v-2.665h.994l1.649 2.666h2.62l-1.953-3.068c1.017-.465 1.684-1.358 1.684-2.704 0-.892-.246-1.571-.725-2.087-.55-.59-1.415-.943-2.667-.943h-3.871v8.802Zm2.269-4.576V6.212h1.485c.761 0 1.228.352 1.228 1.043 0 .667-.444 1.069-1.216 1.069h-1.497ZM166.661 13.077c2.526 0 4.421-2.05 4.421-4.577 0-2.553-1.871-4.577-4.397-4.577-2.527 0-4.421 2.05-4.421 4.577 0 2.553 1.871 4.577 4.397 4.577Zm.024-2.2c-1.24 0-2.094-1.107-2.094-2.377 0-1.295.83-2.376 2.07-2.376 1.252 0 2.105 1.106 2.105 2.376 0 1.295-.83 2.377-2.081 2.377Z" fill="#6D6A61"/></svg>