<svg width="133" height="47" fill="none" xmlns="http://www.w3.org/2000/svg"><path d="M133 0H0v47h133l-12.08-11.874-12.08-11.873 12.08-11.627L133 0Z" fill="#04CA00"/><g clip-path="url(#a)" fill="#fff"><path d="M10.398 5.543c-.521.288-2.812 2.947-4.699 5.463-3.53 4.717-5.804 9.011-6.576 12.461-.288 1.294-.288 3.62.009 5.005.395 1.86 1.078 3.162 2.237 4.25 1.545 1.446 3.567 2.155 6.846 2.407.665.045 1.267.09 1.33.09.08 0 .107.494.107 2.156 0 1.995.018 2.192.18 2.516.207.404.719.718 1.168.718.45 0 .961-.314 1.168-.718.162-.324.18-.521.18-2.507v-2.147l.79-.054c3.9-.27 5.876-.926 7.511-2.47 1.15-1.097 1.824-2.39 2.22-4.242.287-1.347.287-3.692.008-4.995-.961-4.411-4.788-10.799-9.981-16.648C11.844 5.642 11.512 5.391 11 5.391c-.17 0-.45.072-.602.152Zm1.707 4.52c2.974 3.593 5.58 7.528 6.918 10.448 1.07 2.336 1.483 4.097 1.375 5.894-.225 4.088-1.923 5.624-6.658 6.029-.593.044-1.15.09-1.23.09-.153 0-.162-.144-.162-1.78v-1.77l2.524-2.515c1.384-1.384 2.597-2.668 2.696-2.848.215-.431.215-.8-.01-1.24-.314-.62-1.113-.88-1.733-.575-.162.081-1.007.854-1.878 1.725l-1.6 1.59V20.89l1.178-1.168c1.554-1.546 1.743-1.94 1.338-2.74-.206-.405-.718-.72-1.168-.72-.449 0-.8.234-1.77 1.196l-.925.916-.916-.916c-.98-.962-1.33-1.195-1.78-1.195-.449 0-.96.314-1.167.718-.405.8-.216 1.195 1.338 2.74l1.177 1.169v4.222l-1.59-1.59c-.88-.871-1.725-1.644-1.887-1.725-.62-.305-1.42-.045-1.734.575-.224.44-.224.809-.009 1.24.1.18 1.312 1.464 2.696 2.848l2.524 2.516v3.566l-.781-.063c-3.882-.287-5.696-1.105-6.586-2.964-.62-1.294-.871-3.55-.593-5.166.63-3.594 3.567-8.68 8.347-14.447.494-.602.934-1.096.97-1.096.027 0 .53.566 1.096 1.258Z"/><path d="M-6.897 8.814c-.26.134-.53.467-1.14 1.392-2.058 3.09-3.262 6.29-3.801 10.054-.18 1.24-.144 4.609.054 5.93.206 1.356.745 3.512 1.177 4.68.763 2.076 2.11 4.492 3.53 6.316.728.944 2.786 3.02 3.702 3.747 1.86 1.464 4.384 2.893 6.505 3.674 1.168.432 3.324.97 4.68 1.177 1.321.198 4.762.234 6.02.054 3.208-.458 6.2-1.473 8.75-2.974.252-.152.486-.278.504-.278.027 0 .045.53.045 1.168 0 .997.027 1.23.18 1.527.206.404.718.719 1.168.719.449 0 .96-.315 1.168-.728.18-.341.188-.485.161-3.09-.027-2.597-.036-2.74-.215-2.974-.333-.45-.63-.611-1.114-.611-.36 0-.521.054-.827.287-2.021 1.519-4.196 2.687-6.235 3.37-6.54 2.174-13.692.889-19.11-3.432-4.232-3.379-7.026-8.554-7.52-13.98-.413-4.537.8-9.236 3.387-13.117A46.52 46.52 0 0 0-5 10.449c.26-.503-.054-1.357-.62-1.653-.395-.216-.854-.207-1.276.018Z"/></g><path d="M36.289 8.234c.719 0 1.368.169 1.947.506a3.576 3.576 0 0 1 1.375 1.408c.337.594.506 1.261.506 2.002 0 .74-.169 1.412-.506 2.013a3.596 3.596 0 0 1-1.375 1.397 3.798 3.798 0 0 1-1.947.506 4.585 4.585 0 0 1-1.65-.286 3.196 3.196 0 0 1-1.254-.847l.506-.517c.609.616 1.397.924 2.365.924.543 0 1.038-.125 1.485-.374a3.004 3.004 0 0 0 1.078-1.045 3.2 3.2 0 0 0 .473-1.507h-3.971v-.671h3.96a3.156 3.156 0 0 0-.506-1.43 2.822 2.822 0 0 0-1.067-.99 2.963 2.963 0 0 0-1.452-.363c-.968 0-1.756.308-2.365.924l-.506-.517a3.195 3.195 0 0 1 1.254-.847 4.585 4.585 0 0 1 1.65-.286Zm7.69 5.192h-1.32V16h-.781v-5.786h.78v2.541h1.332l2.035-2.541h.847l-2.277 2.805L47.037 16h-.924l-2.134-2.574Zm6.473 2.629c-.557 0-1.06-.125-1.507-.374a2.809 2.809 0 0 1-1.056-1.056 2.994 2.994 0 0 1-.385-1.518c0-.565.128-1.07.385-1.518a2.729 2.729 0 0 1 1.056-1.045c.447-.25.95-.374 1.507-.374.557 0 1.06.125 1.507.374.447.25.796.598 1.045 1.045.257.447.385.953.385 1.518 0 .565-.128 1.07-.385 1.518-.25.447-.598.8-1.045 1.056-.447.25-.95.374-1.507.374Zm0-.693c.41 0 .777-.092 1.1-.275.33-.19.587-.458.77-.803.183-.345.275-.737.275-1.177 0-.44-.092-.832-.275-1.177a1.909 1.909 0 0 0-.77-.792 2.12 2.12 0 0 0-1.1-.286c-.41 0-.78.095-1.11.286-.324.183-.58.447-.77.792a2.468 2.468 0 0 0-.276 1.177c0 .44.092.832.275 1.177.19.345.447.612.77.803.33.183.7.275 1.111.275Zm9.304-5.148V16h-.781v-5.093h-2.772l-.077 1.43c-.059 1.203-.198 2.127-.418 2.772-.22.645-.612.968-1.177.968-.154 0-.341-.03-.561-.088l.055-.671c.132.03.224.044.275.044.3 0 .528-.14.682-.418.154-.279.257-.623.308-1.034.051-.41.095-.953.132-1.628l.099-2.068h4.235Zm4.607 5.841c-.557 0-1.06-.125-1.507-.374a2.809 2.809 0 0 1-1.056-1.056 2.995 2.995 0 0 1-.385-1.518c0-.565.129-1.07.385-1.518a2.729 2.729 0 0 1 1.056-1.045c.448-.25.95-.374 1.507-.374.558 0 1.06.125 1.507.374.448.25.796.598 1.045 1.045.257.447.385.953.385 1.518 0 .565-.128 1.07-.385 1.518-.25.447-.597.8-1.045 1.056-.447.25-.95.374-1.507.374Zm0-.693c.41 0 .778-.092 1.1-.275.33-.19.587-.458.77-.803.184-.345.275-.737.275-1.177 0-.44-.091-.832-.275-1.177a1.909 1.909 0 0 0-.77-.792 2.12 2.12 0 0 0-1.1-.286c-.41 0-.78.095-1.11.286-.323.183-.58.447-.77.792a2.468 2.468 0 0 0-.276 1.177c0 .44.092.832.275 1.177.19.345.448.612.77.803.33.183.7.275 1.111.275Zm8.698-4.455h-3.31V16h-.782v-5.786h4.092v.693Zm1.13-.693h.78v4.598l3.861-4.598h.693V16h-.78v-4.598L74.894 16h-.705v-5.786Zm11.94 0V16h-.782v-2.409c-.667.293-1.323.44-1.969.44-.696 0-1.239-.158-1.628-.473-.388-.323-.583-.803-.583-1.441v-1.903h.781v1.859c0 .433.14.763.418.99.279.22.664.33 1.155.33.543 0 1.152-.143 1.826-.429v-2.75h.781Zm2.217 0h.781v2.563h3.641v-2.563h.781V16h-.78v-2.552h-3.642V16h-.78v-5.786Zm9.81 5.841c-.557 0-1.06-.125-1.507-.374a2.807 2.807 0 0 1-1.056-1.056 2.994 2.994 0 0 1-.385-1.518c0-.565.129-1.07.385-1.518a2.727 2.727 0 0 1 1.056-1.045c.448-.25.95-.374 1.507-.374.558 0 1.06.125 1.507.374.447.25.796.598 1.045 1.045.257.447.385.953.385 1.518 0 .565-.128 1.07-.385 1.518a2.73 2.73 0 0 1-1.045 1.056c-.447.25-.95.374-1.507.374Zm0-.693c.41 0 .778-.092 1.1-.275.33-.19.587-.458.77-.803.183-.345.275-.737.275-1.177 0-.44-.092-.832-.275-1.177a1.908 1.908 0 0 0-.77-.792 2.12 2.12 0 0 0-1.1-.286c-.41 0-.78.095-1.11.286-.323.183-.58.447-.77.792a2.467 2.467 0 0 0-.276 1.177c0 .44.092.832.275 1.177.19.345.448.612.77.803.33.183.7.275 1.111.275ZM42.386 20.8V39H36.25V25.428h-3.12V20.8h9.256Zm10.477 18.616c-1.612 0-3.042-.373-4.29-1.118-1.23-.763-2.201-1.855-2.912-3.276-.693-1.439-1.04-3.146-1.04-5.122s.347-3.675 1.04-5.096c.71-1.439 1.681-2.53 2.912-3.276 1.248-.763 2.678-1.144 4.29-1.144s3.034.381 4.264 1.144c1.248.745 2.219 1.837 2.912 3.276.71 1.421 1.066 3.12 1.066 5.096s-.355 3.683-1.066 5.122c-.693 1.421-1.664 2.513-2.912 3.276-1.23.745-2.652 1.118-4.264 1.118Zm0-4.914c1.387 0 2.08-1.534 2.08-4.602 0-3.068-.693-4.602-2.08-4.602-1.386 0-2.08 1.534-2.08 4.602 0 3.068.694 4.602 2.08 4.602Zm18.002 4.914c-1.612 0-3.042-.373-4.29-1.118-1.23-.763-2.201-1.855-2.912-3.276-.693-1.439-1.04-3.146-1.04-5.122s.347-3.675 1.04-5.096c.71-1.439 1.681-2.53 2.912-3.276 1.248-.763 2.678-1.144 4.29-1.144s3.034.381 4.264 1.144c1.248.745 2.219 1.837 2.912 3.276.71 1.421 1.066 3.12 1.066 5.096s-.355 3.683-1.066 5.122c-.693 1.421-1.664 2.513-2.912 3.276-1.23.745-2.652 1.118-4.264 1.118Zm0-4.914c1.387 0 2.08-1.534 2.08-4.602 0-3.068-.693-4.602-2.08-4.602-1.386 0-2.08 1.534-2.08 4.602 0 3.068.694 4.602 2.08 4.602Zm14.258-3.822c-1.421 0-2.583-.45-3.484-1.352-.901-.901-1.352-2.14-1.352-3.718 0-1.057.208-1.967.624-2.73a4.261 4.261 0 0 1 1.716-1.742c.745-.399 1.577-.598 2.496-.598s1.742.2 2.47.598c.745.399 1.326.98 1.742 1.742.416.763.624 1.673.624 2.73 0 1.577-.45 2.817-1.352 3.718-.901.901-2.063 1.352-3.484 1.352ZM95.81 20.8h4.394L87.775 39h-4.394L95.81 20.8Zm-10.686 7.072c.33 0 .598-.173.806-.52.225-.364.338-.945.338-1.742s-.113-1.37-.338-1.716c-.208-.364-.477-.546-.806-.546-.33 0-.607.182-.832.546-.208.347-.312.919-.312 1.716 0 .797.104 1.378.312 1.742.225.347.503.52.832.52ZM98.461 39.26c-1.421 0-2.583-.45-3.484-1.352-.901-.901-1.352-2.14-1.352-3.718 0-1.057.208-1.967.624-2.73a4.261 4.261 0 0 1 1.716-1.742c.745-.399 1.577-.598 2.496-.598s1.742.2 2.47.598a4.22 4.22 0 0 1 1.742 1.742c.416.763.624 1.673.624 2.73 0 1.577-.451 2.817-1.352 3.718-.901.901-2.063 1.352-3.484 1.352Zm0-2.808c.33 0 .598-.173.806-.52.225-.364.338-.945.338-1.742s-.113-1.37-.338-1.716c-.208-.364-.477-.546-.806-.546-.33 0-.607.182-.832.546-.208.347-.312.919-.312 1.716 0 .797.104 1.378.312 1.742.225.347.503.52.832.52Z" fill="#fff"/><defs><clipPath id="a"><path fill="#fff" d="M0 0h34v46H0z"/></clipPath></defs></svg>