<svg width="151" height="47" fill="none" xmlns="http://www.w3.org/2000/svg"><path d="M151 0H0v47h151l-24.16-23.747L151 0Z" fill="#F52942"/><path d="M44 19.714c4.083 0 7.097.84 9.042 2.521C55.014 23.916 56 26.157 56 28.958c0 1.82-.472 3.501-1.417 5.042-.916 1.513-2.333 2.731-4.25 3.656-1.889.896-4.236 1.344-7.041 1.344-2.056 0-4.098-.252-6.125-.756-2-.505-3.723-1.219-5.167-2.143l2.958-6.26a14.195 14.195 0 0 0 3.834 1.806c1.416.42 2.833.63 4.25.63 1.416 0 2.541-.266 3.375-.798.86-.56 1.291-1.33 1.291-2.31 0-.981-.416-1.724-1.25-2.228-.833-.504-2.305-.756-4.416-.756h-7.917L35.583 9h18.584v6.429h-11.75l-.375 4.285H44ZM75.56 9v14h-3.9V12.14h-4.02l-.08 2.28c-.067 2-.233 3.627-.5 4.88-.253 1.253-.693 2.227-1.32 2.92-.627.68-1.513 1.02-2.66 1.02-.533 0-1.133-.08-1.8-.24l.22-3.24c.173.04.353.06.54.06.52 0 .92-.207 1.2-.62.28-.413.48-.987.6-1.72.12-.747.2-1.713.24-2.9l.2-5.58h11.28Zm14.235 10.94V23h-11.24V9h10.98v3.06h-7.06v2.36h6.22v2.96h-6.22v2.56h7.32Zm13.536-7.8h-4.28V23h-3.9V12.14h-4.3V9h12.48v3.14ZM67.149 30.981h-3.913V37h-.923v-6.838h4.836v.819Zm3.687-.871c.893 0 1.577.225 2.054.676.477.442.715 1.1.715 1.976V37h-.884v-1.066a2.11 2.11 0 0 1-.923.832c-.399.2-.875.299-1.43.299-.763 0-1.37-.182-1.82-.546-.45-.364-.676-.845-.676-1.443 0-.58.208-1.049.624-1.404.425-.355 1.096-.533 2.015-.533h2.17v-.416c0-.59-.164-1.036-.493-1.339-.33-.312-.81-.468-1.443-.468-.433 0-.85.074-1.248.221a3.059 3.059 0 0 0-1.027.585l-.416-.689c.347-.295.763-.52 1.248-.676a4.741 4.741 0 0 1 1.534-.247Zm-.325 6.227c.52 0 .966-.117 1.339-.351.373-.243.65-.59.832-1.04v-1.118h-2.145c-1.17 0-1.755.407-1.755 1.222 0 .399.152.715.455.949.303.225.728.338 1.274.338Zm9.074-6.227a3.47 3.47 0 0 1 1.742.442c.52.286.927.693 1.222 1.222.295.529.442 1.131.442 1.807 0 .685-.147 1.291-.442 1.82-.295.529-.702.94-1.222 1.235-.511.286-1.092.429-1.742.429a3.325 3.325 0 0 1-1.508-.338 2.91 2.91 0 0 1-1.092-1.014v3.809h-.923v-9.36h.884v1.352c.277-.45.641-.797 1.092-1.04a3.26 3.26 0 0 1 1.547-.364Zm-.065 6.136c.477 0 .91-.108 1.3-.325.39-.225.693-.542.91-.949.225-.407.338-.871.338-1.391s-.113-.98-.338-1.378a2.342 2.342 0 0 0-.91-.949 2.552 2.552 0 0 0-1.3-.338c-.485 0-.923.113-1.313.338a2.46 2.46 0 0 0-.91.949c-.217.399-.325.858-.325 1.378 0 .52.108.984.325 1.391.225.407.529.724.91.949.39.217.828.325 1.313.325Zm7.769-6.136c.893 0 1.577.225 2.054.676.477.442.715 1.1.715 1.976V37h-.884v-1.066a2.11 2.11 0 0 1-.923.832c-.399.2-.875.299-1.43.299-.763 0-1.37-.182-1.82-.546-.45-.364-.676-.845-.676-1.443 0-.58.208-1.049.624-1.404.425-.355 1.096-.533 2.015-.533h2.171v-.416c0-.59-.165-1.036-.494-1.339-.33-.312-.81-.468-1.443-.468-.433 0-.85.074-1.248.221a3.059 3.059 0 0 0-1.027.585l-.416-.689c.347-.295.763-.52 1.248-.676a4.741 4.741 0 0 1 1.534-.247Zm-.325 6.227c.52 0 .966-.117 1.339-.351.373-.243.65-.59.832-1.04v-1.118H86.99c-1.17 0-1.755.407-1.755 1.222 0 .399.152.715.455.949.303.225.728.338 1.274.338Zm5.551-6.175h.923v3.029h4.303v-3.029h.923V37h-.923v-3.016h-4.303V37h-.923v-6.838Zm13.583.819h-2.587V37h-.923v-6.019h-2.587v-.819h6.097v.819Zm1.334-.819h.923v5.434l4.563-5.434h.819V37h-.923v-5.434L108.264 37h-.832v-6.838Zm8.95 0h.923v5.434l4.563-5.434h.819V37h-.923v-5.434L117.214 37h-.832v-6.838Z" fill="#fff"/><g clip-path="url(#a)" fill="#fff"><path d="M10.459 6.155c-.162.091-.591.422-.95.745C6.444 9.642 2.886 11-1.755 11.196c-1.525.063-1.743.127-2.08.619-.177.253-.177.288-.233 2.264-.084 2.848-.021 7.439.12 8.866.393 4.001 1.237 7.088 2.65 9.647 1.976 3.586 5.042 6.335 9.176 8.234C9.144 41.409 10.712 42 11 42c.12 0 .647-.162 1.174-.359 3.403-1.272 6.188-3.03 8.318-5.238 3.213-3.34 4.866-7.41 5.456-13.458.141-1.427.204-6.018.12-8.866-.056-1.976-.056-2.011-.232-2.264-.338-.492-.555-.556-2.081-.619-4.697-.197-8.367-1.624-11.447-4.444-.858-.78-1.266-.914-1.85-.597Zm1.216 3.375a18.844 18.844 0 0 0 5.927 3.178c1.491.485 2.855.745 4.782.92.597.057 1.104.12 1.125.149.091.084.042 8.128-.05 9.028-.372 3.607-.97 5.892-2.144 8.191-1.87 3.67-5.077 6.37-9.696 8.163L11 39.4l-.612-.24c-4.176-1.617-7.347-4.106-9.175-7.193-1.505-2.538-2.25-5.097-2.672-9.161-.092-.9-.141-8.944-.05-9.028.022-.029.528-.092 1.125-.148 1.927-.176 3.291-.436 4.782-.921a18.864 18.864 0 0 0 5.927-3.178c.345-.282.654-.507.675-.507.021 0 .33.225.675.507Z"/><path d="M15.711 19.366c-.098.035-1.59 1.484-3.319 3.214l-3.15 3.136-1.455-1.449C6.395 22.89 6.31 22.82 5.994 22.77a1.269 1.269 0 0 0-1.392 1.701c.098.26 3.839 4.015 4.127 4.141.387.17.865.127 1.223-.105.5-.324 7.278-7.165 7.411-7.474.352-.865-.225-1.751-1.139-1.737-.183 0-.415.035-.513.07Z"/></g><defs><clipPath id="a"><path fill="#fff" transform="translate(0 6)" d="M0 0h26v36H0z"/></clipPath></defs></svg>