<svg width="204" height="70" fill="none" xmlns="http://www.w3.org/2000/svg"><path d="M0 70V0h204v70l-103.214-9.568L0 70Z" fill="#F52942"/><path d="M95.959 43.216c2.627 0 4.409-1.584 4.409-3.582 0-1.674-1.151-2.646-2.645-3.096 1.151-.414 2.303-1.278 2.303-2.97 0-1.944-1.745-3.366-4.248-3.366-1.998 0-3.312.594-4.572 1.674l.828.99c1.098-.99 2.286-1.422 3.709-1.422 1.656 0 2.844.954 2.844 2.25 0 1.494-1.279 2.376-3.079 2.376h-1.385v1.17h1.385c1.927 0 3.403.684 3.403 2.322 0 1.494-1.386 2.43-2.934 2.43-1.819 0-3.15-.594-4.428-1.8l-.847.99c1.477 1.35 3.079 2.034 5.257 2.034Zm9.805-.018c1.638 0 2.7-.756 3.348-1.584V43h1.368v-5.688c0-1.188-.324-2.088-.972-2.736-.666-.666-1.692-1.026-3.006-1.026-1.368 0-2.358.324-3.384.792l.414 1.134c.864-.396 1.728-.666 2.826-.666 1.746 0 2.754.864 2.754 2.52v.288a9.75 9.75 0 0 0-2.844-.396c-2.358 0-3.978 1.044-3.978 3.042 0 1.944 1.728 2.934 3.474 2.934Zm.27-1.116c-1.26 0-2.34-.684-2.34-1.854 0-1.152.99-1.908 2.718-1.908 1.134 0 2.034.198 2.718.396v.864c0 1.476-1.386 2.502-3.096 2.502Zm15.73 1.134c2.304 0 3.69-1.314 3.69-2.808 0-1.224-.702-1.926-1.728-2.286.792-.324 1.494-.99 1.494-2.142 0-1.44-1.278-2.484-3.366-2.484-1.368 0-2.628.414-3.6 1.17l.684.972c.81-.648 1.908-.936 2.826-.936 1.152 0 2.016.522 2.016 1.386 0 .972-.846 1.602-2.07 1.602h-1.26v1.134h1.242c1.512 0 2.34.594 2.34 1.53 0 1.08-1.098 1.656-2.304 1.656-1.116 0-2.178-.414-3.114-1.206l-.702 1.026c1.134.918 2.376 1.386 3.852 1.386Zm9.031-.018c1.638 0 2.7-.756 3.348-1.584V43h1.368v-5.688c0-1.188-.324-2.088-.972-2.736-.666-.666-1.692-1.026-3.006-1.026-1.368 0-2.358.324-3.384.792l.414 1.134c.864-.396 1.728-.666 2.826-.666 1.746 0 2.754.864 2.754 2.52v.288a9.75 9.75 0 0 0-2.844-.396c-2.358 0-3.978 1.044-3.978 3.042 0 1.944 1.728 2.934 3.474 2.934Zm.27-1.116c-1.26 0-2.34-.684-2.34-1.854 0-1.152.99-1.908 2.718-1.908 1.134 0 2.034.198 2.718.396v.864c0 1.476-1.386 2.502-3.096 2.502Zm6.554.918h1.71c.864-1.116 1.71-2.25 2.574-3.384h2.574V43h1.386v-9.306h-4.374c-2.214 0-3.51 1.188-3.51 2.898 0 1.512 1.098 2.484 2.484 2.808l-2.844 3.6Zm3.978-4.554c-1.296 0-2.232-.666-2.232-1.8 0-1.062.81-1.728 2.196-1.728h2.916v3.528h-2.88ZM148.959 43h4.662c2.052 0 3.384-.972 3.384-2.538 0-1.314-.936-1.998-2.052-2.304.774-.324 1.548-.918 1.548-2.142 0-1.404-1.188-2.322-3.042-2.322h-4.5V43Zm1.386-1.188v-3.006h2.916c1.512 0 2.322.54 2.322 1.44 0 .972-.81 1.566-2.142 1.566h-3.096Zm0-4.122v-2.808h2.898c1.206 0 1.854.54 1.854 1.314 0 .972-.774 1.494-1.89 1.494h-2.862Zm9.161 5.31h1.386v-2.25l1.962-2.016L166.166 43h1.638l-3.996-5.274 3.888-4.032h-1.71l-5.094 5.364v-5.364h-1.386V43Zm11.652 2.934c1.404 0 2.304-.702 3.096-2.628l3.906-9.612h-1.476l-2.988 7.758-3.384-7.758h-1.53l4.23 9.27c-.558 1.314-1.08 1.746-1.908 1.746-.594 0-1.008-.108-1.458-.342l-.468 1.098c.63.306 1.206.468 1.98.468Zm9.699-6.498h.774l.432-8.01V30.4h-1.62v1.026l.414 8.01ZM180.425 43h1.656v-1.89h-1.656V43ZM21.04 40.046h8.529v-4.342H21.04v4.342ZM34.066 46h4.966V27.67h-3.666l-5.33 1.508.962 3.9 3.068-.702V46Zm16.194.364c5.2 0 8.45-4.316 8.45-9.464 0-5.2-3.224-9.464-8.398-9.464-5.174 0-8.45 4.316-8.45 9.464 0 5.2 3.198 9.464 8.398 9.464Zm.052-4.472c-2.028 0-3.38-2.08-3.38-4.992 0-2.964 1.326-4.992 3.328-4.992s3.38 2.106 3.38 4.992c0 2.938-1.3 4.992-3.328 4.992ZM62.7 46h3.51l14.04-18.2h-3.51L62.7 46Zm14.846.26c2.808 0 4.706-2.236 4.706-4.888 0-2.73-1.846-4.914-4.68-4.914-2.86 0-4.706 2.21-4.706 4.888 0 2.704 1.872 4.914 4.68 4.914Zm.026-2.86c-.858 0-1.534-.884-1.534-2.028 0-1.222.572-2.054 1.508-2.054.884 0 1.534.858 1.534 2.028 0 1.196-.624 2.054-1.508 2.054Zm-12.194-6.058c2.808 0 4.706-2.21 4.706-4.888 0-2.704-1.846-4.914-4.68-4.914-2.86 0-4.706 2.21-4.706 4.888 0 2.73 1.872 4.914 4.68 4.914Zm.026-2.86c-.858 0-1.534-.858-1.534-2.028 0-1.196.598-2.054 1.508-2.054.884 0 1.534.884 1.534 2.028 0 1.196-.624 2.054-1.508 2.054Z" fill="#fff"/></svg>