<svg width="193" height="87" fill="none" xmlns="http://www.w3.org/2000/svg"><path fill-rule="evenodd" clip-rule="evenodd" d="M50.14 2.703c7.35 1.719 13.29 6.234 19.212 10.923 5.662 4.483 10.698 9.313 14.275 15.591C88.04 36.96 95.243 45.43 92.263 53.83c-2.988 8.42-15.09 8.358-22.234 13.712-7.307 5.475-11.107 15.369-19.888 17.853-9.99 2.827-21.545 2.115-30.158-3.692C11.26 75.82 6.483 65.264 4.854 54.859c-1.486-9.492 3.474-18.252 6.649-27.318 3.084-8.809 3.736-19.693 11.578-24.735 7.782-5.002 18.055-2.208 27.06-.103Z" fill="#688101"/><path d="M23.916 83.893c1.036.863 8.25.949 12.338-1.297 4.088-2.28 7.37-5.345 9.844-9.194 2.474-3.885 3.711-8.25 3.711-13.097 0-3.6-.663-7.003-1.99-10.21a23.213 23.213 0 0 0-5.756-8.447c-2.546-2.424-5.665-4.17-9.359-5.239L48.411 21.28V7.595H0V21.28h31.09L10.22 38.494l6.562 11.44c1.937-1.14 3.945-1.71 6.025-1.71 3.55 0 6.455 1.193 8.714 3.58 2.295 2.353 3.442 5.186 3.442 8.5 0 2.21-.556 4.224-1.667 6.041-1.076 1.818-2.546 3.261-4.411 4.33-1.829 1.07-3.855 1.604-6.078 1.604-2.582 0-4.985-.766-7.208-2.299-2.187-1.568-3.658-3.76-4.41-6.575L7.344 64.56c1.208 3.108 1.38 3.453 3.107 6.733 1.726 2.934 3.798 5.4 5.147 6.732 2.448 2.416 4.174 4.315 8.317 5.869ZM64.654 34.82h6.317V7.285h15.511V1.387H64.654v33.434ZM106.397 35.517c3.344 0 6.223-.727 8.638-2.182 2.43-1.455 4.296-3.49 5.596-6.107 1.316-2.616 1.974-5.657 1.974-9.124 0-3.467-.658-6.509-1.974-9.125-1.3-2.616-3.166-4.651-5.596-6.106C112.62 1.418 109.741.69 106.397.69c-3.344 0-6.231.728-8.662 2.183-2.415 1.455-4.28 3.49-5.596 6.106-1.3 2.616-1.95 5.658-1.95 9.125 0 3.467.65 6.509 1.95 9.124 1.316 2.616 3.181 4.652 5.596 6.107 2.431 1.455 5.318 2.182 8.662 2.182Zm0-5.944c-3.174-.046-5.558-1.099-7.152-3.157-1.58-2.059-2.369-4.83-2.369-8.312 0-3.483.79-6.277 2.369-8.382 1.594-2.105 3.978-3.134 7.152-3.088 3.189.047 5.573 1.1 7.152 3.158 1.579 2.059 2.368 4.83 2.368 8.312 0 3.483-.789 6.276-2.368 8.381-1.579 2.105-3.963 3.135-7.152 3.088ZM126.333 40.393h6.316V34.82h19.274v5.572h6.316v-11.47h-2.554V1.387l-22.2-.046c-.232 3.39-.433 6.446-.603 9.17a412.578 412.578 0 0 1-.604 8.243c-.17 1.95-.464 3.691-.882 5.224-.418 1.532-1.03 2.74-1.835 3.622-.805.882-1.881 1.323-3.228 1.323v11.47Zm9.428-11.47c.635-.836 1.107-1.64 1.417-2.414.325-.774.565-1.68.719-2.717.155-1.052.31-2.391.465-4.017a174.923 174.923 0 0 0 .604-8.312c.077-1.284.17-2.693.278-4.225l10.125.046v21.64h-13.608ZM162.876 34.82h6.501l2.114-6.965h12.585l2.16 6.966h6.502L182.521 1.387h-9.428l-10.217 33.434Zm10.403-12.862 4.458-14.65 4.528 14.65h-8.986ZM64.668 62.87h1.827V46.723h9.359v-1.752H64.668v17.897ZM77.115 62.87h1.902l1.491-4.338h7.955l1.503 4.337h1.902l-6.165-17.897H83.28l-6.165 17.897Zm3.99-6.054 3.368-9.78 3.393 9.78h-6.761ZM95.107 62.87h1.827v-6.8h5.083a9.268 9.268 0 0 0 1.255-.1c1.392-.214 2.465-.827 3.219-1.838.762-1.011 1.144-2.212 1.144-3.604 0-1.4-.377-2.606-1.131-3.617-.754-1.011-1.832-1.624-3.232-1.84a4.624 4.624 0 0 0-.671-.074 7.656 7.656 0 0 0-.584-.025h-6.91v17.897Zm1.827-8.54v-7.606h5.033c.149 0 .323.009.522.025.207.008.402.033.584.075.92.199 1.595.659 2.026 1.38a4.35 4.35 0 0 1 .659 2.324 4.39 4.39 0 0 1-.659 2.324c-.431.72-1.106 1.176-2.026 1.367-.182.041-.377.07-.584.087a6.42 6.42 0 0 1-.522.025h-5.033ZM109.374 62.87h1.902l1.491-4.338h7.955l1.503 4.337h1.902l-6.165-17.897h-2.423l-6.165 17.897Zm3.99-6.054 3.368-9.78 3.393 9.78h-6.761ZM127.366 62.87h1.827v-8.08h9.893v8.08h1.814V44.971h-1.814v8.066h-9.893v-8.066h-1.827v17.897ZM150.136 62.87h1.827V46.723h6.252v-1.752h-14.33v1.752h6.251V62.87ZM174.737 62.87h-1.839V48.19l-9.856 14.68h-1.84V44.971h1.84v14.666l9.856-14.666h1.839v17.897ZM192.748 62.87h-1.84V48.19l-9.855 14.68h-1.84V44.971h1.84v14.666l9.855-14.666h1.84v17.897ZM64.572 84.576h1.725v-7.63h9.344v7.63h1.713V67.674h-1.713v7.618h-9.344v-7.618h-1.725v16.902ZM80.408 84.576h1.796l1.408-4.096h7.513l1.42 4.096h1.796L88.52 67.674H86.23l-5.822 16.902Zm3.768-5.716 3.18-9.238 3.205 9.238h-6.385ZM105.891 84.576h1.878l7.865-16.902h-1.843l-5.095 11.045-5-11.045h-1.913l6.01 12.9-1.902 4.002ZM123.817 84.929c1.964 0 3.569-.501 4.813-1.503 1.244-1.01 2.097-2.36 2.559-4.05l-1.761-.457c-.36 1.33-1.005 2.39-1.937 3.18-.931.783-2.156 1.174-3.674 1.174-1.322 0-2.429-.3-3.322-.903-.884-.61-1.549-1.452-1.995-2.524-.438-1.072-.653-2.312-.646-3.721.016-1.409.243-2.649.681-3.721.438-1.08 1.096-1.921 1.972-2.524.884-.602 1.988-.903 3.31-.903 1.518 0 2.743.395 3.674 1.185.932.783 1.577 1.839 1.937 3.17l1.761-.458c-.462-1.69-1.315-3.037-2.559-4.038-1.244-1.01-2.849-1.515-4.813-1.515-1.682 0-3.102.372-4.261 1.116-1.158.743-2.034 1.776-2.629 3.098-.595 1.323-.892 2.853-.892 4.59 0 1.73.297 3.26.892 4.59.595 1.322 1.471 2.355 2.629 3.099 1.159.743 2.579 1.115 4.261 1.115ZM132.395 84.576c.79.204 1.436.224 1.937.06a2.265 2.265 0 0 0 1.209-.905c.305-.438.544-.978.716-1.62.172-.641.317-1.338.434-2.089a66.56 66.56 0 0 0 .657-5.623c.133-1.76.251-3.45.353-5.07h7.277v15.247h1.726V67.674h-10.67a168.587 168.587 0 0 1-.364 5.986 66.889 66.889 0 0 1-.657 5.552c-.18 1.143-.36 2-.54 2.57-.18.564-.427.928-.74 1.092-.313.165-.759.22-1.338.165v1.537ZM153.775 84.576h1.878l7.865-16.902h-1.843l-5.094 11.045-5.001-11.045h-1.913l6.01 12.9-1.902 4.002ZM166.489 84.576h1.725V69.33h8.839v-1.655h-10.564v16.902ZM192.659 84.576h-1.737V70.714l-9.308 13.862h-1.738V67.674h1.738v13.85l9.308-13.85h1.737v16.902Z" fill="#fff"/></svg>